<?xml version="1.0" encoding="UTF-8" standalone="no"?>

<svg version="1.1"
   id="svg1"
   viewBox="0 0 442 332"
   xmlns="http://www.w3.org/2000/svg">
  <defs id="defs1" />
  <g id="g1">
    <g id="g2">
      <path
         style="fill:#e47e72"
         d="m 185.35865,296.75 c -37.12527,-37.25124 -41.81318,-42.85391 -49.27661,-58.89197 -5.13817,-11.04134 -10.54682,-27.35751 -12.50331,-37.7185 -2.02616,-10.72989 -2.042,-31.21575 -0.0331,-42.75854 3.08251,-17.7113 12.24574,-40.42322 21.27329,-52.72786 2.48291,-3.38422 7.43877,-9.191226 11.01305,-12.904455 3.57427,-3.713229 6.31177,-6.914824 6.08333,-7.114655 C 161.30486,84.099984 139.24692,71.623481 134,68.844427 c -2.475,-1.310895 -4.5,-3.049666 -4.5,-3.863936 0,-1.259582 3.64371,-1.520505 24.41942,-1.748654 C 178.28808,62.964231 181,62.577622 181,59.37125 181,57.378722 167.3464,33.572709 154.81047,13.707959 147.71033,2.4568967 146.80744,0 149.77291,0 c 1.64942,0 21.37084,11.580086 37.87706,22.240778 3.93248,2.53983 12.70748,7.875733 19.5,11.857563 6.79252,3.981831 17.30003,10.140919 23.35003,13.686863 16.88396,9.895797 28.41002,15.525026 47.4085,23.153899 10.38965,4.171984 18.5334,8.068138 20.19853,9.663441 3.27642,3.139007 8.92462,13.672585 11.36769,21.200086 l 1.72097,5.30263 14.65216,6.96867 c 8.05868,3.83278 15.43354,7.40909 16.38858,7.94737 2.26607,1.27722 6.61382,1.23746 14.48015,-0.1324 7.8554,-1.36796 9.54428,-0.23927 11.93201,7.97425 1.37189,4.71911 1.43148,6.731 0.41468,13.99943 -1.91545,13.69225 -8.06905,29.01797 -13.77236,34.30044 l -2.52315,2.33698 -2.13388,-3 c -3.25797,-4.58034 -10.6733,-11.44334 -15.13388,-14.00662 -4.17845,-2.40116 -12.47419,-4.00976 -26,-5.04159 -4.4,-0.33566 -8.9,-0.82783 -10,-1.09372 -7.87012,-1.90235 21.63787,14.00708 32.09129,17.30223 C 334.56608,175.59802 337,176.75541 337,177.23228 337,181.33487 319.32144,201 315.63329,201 c -1.0704,0 -6.82058,-4.72823 -13.07347,-10.75 -12.94281,-12.46442 -19.74639,-16.43458 -48.47231,-28.28555 -19.72638,-8.13818 -26.08263,-9.38374 -33.47647,-6.56001 -5.01511,1.91529 -13.93502,10.73338 -16.10094,15.91714 -3.4877,8.34724 -2.62497,21.62982 1.98852,30.61542 6.03786,11.75981 26.98229,37.27968 49.50138,60.31527 11.26918,11.52766 16.60522,17.70112 16.8319,19.47348 0.28412,2.22146 -3.09772,6.02689 -23.49219,26.43464 C 230.87635,326.63578 224.95015,332 223.00253,332 c -1.97218,0 -10.07451,-7.58708 -37.64388,-35.25 z m 104.1334,-182.99876 c -2.56867,-8.31708 -4.44747,-11.70477 -6.74815,-12.1677 -4.70596,-0.94689 -27.09521,-3.565563 -27.45018,-3.210597 -0.20479,0.204794 3.06052,3.783017 7.25624,7.951617 7.44911,7.40095 10.82016,9.35389 17.68962,10.24806 1.79323,0.23342 4.61042,0.81117 6.26042,1.2839 1.65,0.47272 3.29363,0.69894 3.6525,0.50272 0.35888,-0.19622 0.0617,-2.26982 -0.66045,-4.608 z"
         id="path3" />
      <path
         style="fill:#2a2525"
         d="M 337.5,297.14109 C 333.11732,294.43634 324,284.41684 324,282.30523 324,281.24896 340.92369,263.57092 364.5,240 386.775,217.73009 405,198.82484 405,197.98832 c 0,-0.83652 -5.20038,-6.6886 -11.55641,-13.00463 -13.21256,-13.12942 -12.55208,-10.4077 -6.73006,-27.73369 2.58763,-7.70062 4.25696,-11.25 5.29105,-11.25 0.8309,0 12.41978,10.91588 25.75307,24.2575 C 440.16634,192.6802 442,194.77946 442,198.01133 c 0,3.28073 -3.00635,6.5022 -48.75379,52.2425 -31.8349,31.82993 -49.44653,48.74487 -50.75,48.74243 -1.09791,-0.002 -3.34621,-0.83688 -4.99621,-1.85517 z M 48.746173,249.24621 C 20.290818,220.78641 0,199.73819 0,198.68047 0,197.6839 0.49695382,195.8856 1.1043418,194.68426 3.1994014,190.54048 97.394841,97 99.472578,97 c 1.119972,0 5.140502,3.13903 9.253902,7.22497 C 114.56761,110.02712 116,112.0466 116,114.47972 116,117.13511 111.11906,122.38926 76.5,157 54.775,178.71978 37,197.16975 37,197.99994 c 0,0.83019 18,19.50522 40,41.50006 32.08203,32.07451 40,40.50344 40,42.58125 C 117,285.86211 104.29951,298 100.3434,298 97.914209,298 90.279519,290.78605 48.746173,249.24621 Z"
         id="path2" />
    </g>
  </g>
</svg>
